<?xml version="1.0" encoding="utf-8"?>
<!-- Generator: Adobe Illustrator 14.0.0, SVG Export Plug-In . SVG Version: 6.00 Build 43363)  -->
<!DOCTYPE svg PUBLIC "-//W3C//DTD SVG 1.1//EN" "http://www.w3.org/Graphics/SVG/1.1/DTD/svg11.dtd">
<svg version="1.1" id="Layer_1" xmlns="http://www.w3.org/2000/svg" xmlns:xlink="http://www.w3.org/1999/xlink" x="0px" y="0px"
	 width="340.158px" height="280px" viewBox="-157.454 -303.499 340.158 280" enable-background="new -157.454 -303.499 340.158 280"
	 xml:space="preserve">
<path fill="#FFFFFF" d="M174.286-164.245L174.286-164.245c0-5.648-2.204-10.976-6.201-14.968c-0.975-0.974-2.028-1.839-3.146-2.596
	l0.001-0.005L18.977-286.375c-4.594-3.302-10.32-4.382-15.731-3.479c-5.45,0.896-10.55,3.759-13.812,8.361
	c-3.29,4.591-4.601,10.205-3.677,15.779c0.924,5.574,3.954,10.476,8.547,13.779l111.814,80.121c2.312,1.717,4.443,4.467,4.443,7.569
	c0,3.103-2.132,5.854-4.446,7.571L-5.696-76.555c-4.593,3.303-7.623,8.205-8.547,13.779c-0.924,5.574,0.386,11.187,3.677,15.778
	c3.262,4.602,8.362,7.465,13.812,8.361c5.411,0.904,11.137-0.177,15.73-3.479l145.965-104.56l-0.001-0.006
	c1.116-0.756,2.17-1.622,3.145-2.596C172.083-153.27,174.286-158.597,174.286-164.245z"/>
<path fill="#FFFFFF" d="M46.303-164.245L46.303-164.245c0-5.648-2.204-10.976-6.201-14.968c-0.975-0.974-2.028-1.839-3.146-2.596
	l0.001-0.005l-145.97-104.561c-4.594-3.302-10.32-4.382-15.731-3.479c-5.45,0.896-10.55,3.759-13.812,8.361
	c-3.29,4.591-4.601,10.205-3.677,15.779c0.924,5.574,3.954,10.476,8.547,13.779l111.814,80.121c2.312,1.717,4.443,4.467,4.443,7.569
	c0,3.103-2.132,5.854-4.446,7.571l-111.811,80.119c-4.593,3.303-7.623,8.205-8.547,13.779c-0.924,5.574,0.386,11.187,3.677,15.778
	c3.262,4.602,8.362,7.465,13.812,8.361c5.411,0.904,11.137-0.177,15.73-3.479l145.971-104.56l-0.001-0.006
	c1.116-0.756,2.17-1.622,3.145-2.596C44.1-153.27,46.303-158.597,46.303-164.245z"/>
</svg>
