<?xml version="1.0" encoding="utf-8"?>
<!-- Generator: Adobe Illustrator 14.0.0, SVG Export Plug-In . SVG Version: 6.00 Build 43363)  -->
<!DOCTYPE svg PUBLIC "-//W3C//DTD SVG 1.1//EN" "http://www.w3.org/Graphics/SVG/1.1/DTD/svg11.dtd">
<svg version="1.1" id="Layer_1" xmlns="http://www.w3.org/2000/svg" xmlns:xlink="http://www.w3.org/1999/xlink" x="0px" y="0px"
	 width="340.158px" height="280px" viewBox="0 0 340.158 280" enable-background="new 0 0 340.158 280" xml:space="preserve">
<path fill="#FFFFFF" d="M11.208,141.755L11.208,141.755c0,5.647,2.204,10.976,6.201,14.968c0.975,0.975,2.027,1.839,3.146,2.596
	l-0.001,0.006l145.963,104.561c4.599,3.302,10.324,4.382,15.735,3.479c5.45-0.896,10.55-3.759,13.812-8.36
	c3.29-4.591,4.602-10.205,3.678-15.779c-0.925-5.573-3.954-10.476-8.548-13.778L79.376,149.324
	c-2.312-1.717-4.443-4.467-4.443-7.569s2.132-5.854,4.446-7.571l111.814-80.119c4.594-3.303,7.623-8.205,8.548-13.779
	c0.924-5.573-0.387-11.187-3.678-15.777c-3.262-4.602-8.361-7.465-13.812-8.361c-5.411-0.904-11.137,0.178-15.734,3.479
	L20.552,124.186l0.001,0.006c-1.116,0.756-2.17,1.622-3.145,2.596C13.411,130.779,11.208,136.107,11.208,141.755z"/>
<path fill="#FFFFFF" d="M139.19,141.755L139.19,141.755c0,5.647,2.204,10.976,6.201,14.968c0.976,0.975,2.028,1.839,3.146,2.596
	l-0.001,0.006L294.51,263.885c4.594,3.302,10.32,4.382,15.731,3.479c5.449-0.896,10.55-3.759,13.812-8.36
	c3.29-4.591,4.602-10.205,3.677-15.779c-0.924-5.573-3.954-10.476-8.547-13.778L207.37,149.324
	c-2.312-1.717-4.443-4.467-4.443-7.569s2.132-5.854,4.446-7.571l111.811-80.119c4.593-3.303,7.623-8.205,8.547-13.779
	c0.925-5.573-0.386-11.187-3.677-15.777c-3.262-4.602-8.362-7.465-13.812-8.361c-5.411-0.904-11.138,0.178-15.73,3.479
	l-145.975,104.56l0.001,0.006c-1.116,0.756-2.17,1.623-3.146,2.596C141.393,130.779,139.19,136.107,139.19,141.755z"/>
</svg>
