<?xml version="1.0" encoding="utf-8"?>
<!-- Generator: Adobe Illustrator 14.0.0, SVG Export Plug-In . SVG Version: 6.00 Build 43363)  -->
<!DOCTYPE svg PUBLIC "-//W3C//DTD SVG 1.1//EN" "http://www.w3.org/Graphics/SVG/1.1/DTD/svg11.dtd">
<svg version="1.1" id="Layer_1" xmlns="http://www.w3.org/2000/svg" xmlns:xlink="http://www.w3.org/1999/xlink" x="0px" y="0px"
	 width="174.521px" height="162px" viewBox="0 0 174.521 162" enable-background="new 0 0 174.521 162" xml:space="preserve">
<path fill="#021799" d="M167.681,81.488L167.681,81.488c0-2.827-1.103-5.491-3.101-7.487c-0.487-0.487-1.014-0.919-1.572-1.298V72.7
	L90.027,20.42c-2.295-1.651-5.158-2.191-7.864-1.739c-2.725,0.448-5.274,1.879-6.905,4.18c-1.646,2.295-2.302,5.103-1.839,7.89
	c0.463,2.787,1.977,5.238,4.273,6.889L133.596,77.7c1.156,0.858,2.223,2.234,2.223,3.788c0,1.552-1.066,2.928-2.224,3.787
	l-55.903,40.06c-2.297,1.651-3.812,4.103-4.274,6.89c-0.462,2.786,0.194,5.593,1.839,7.888c1.631,2.302,4.181,3.732,6.906,4.181
	c2.705,0.452,5.568-0.089,7.863-1.739l72.982-52.279l-0.001-0.004c0.558-0.378,1.085-0.811,1.573-1.298
	C166.58,86.977,167.681,84.312,167.681,81.488z"/>
<path fill="#021799" d="M103.69,81.488L103.69,81.488c0-2.827-1.102-5.491-3.101-7.487c-0.488-0.487-1.015-0.919-1.573-1.298V72.7
	L26.034,20.42c-2.297-1.651-5.16-2.191-7.866-1.739c-2.724,0.448-5.275,1.879-6.906,4.18c-1.645,2.295-2.301,5.103-1.838,7.89
	c0.462,2.787,1.977,5.238,4.273,6.889L69.604,77.7c1.156,0.858,2.221,2.234,2.221,3.788c0,1.552-1.065,2.928-2.223,3.787
	l-55.905,40.06c-2.296,1.651-3.812,4.103-4.273,6.89c-0.463,2.786,0.193,5.593,1.838,7.888c1.631,2.302,4.181,3.732,6.906,4.181
	c2.706,0.452,5.569-0.089,7.865-1.739l72.982-52.279V90.27c0.559-0.378,1.085-0.812,1.573-1.298
	C102.588,86.977,103.69,84.312,103.69,81.488z"/>
</svg>
