<?xml version="1.0" encoding="utf-8"?>
<!-- Generator: Adobe Illustrator 14.0.0, SVG Export Plug-In . SVG Version: 6.00 Build 43363)  -->
<!DOCTYPE svg PUBLIC "-//W3C//DTD SVG 1.1//EN" "http://www.w3.org/Graphics/SVG/1.1/DTD/svg11.dtd">
<svg version="1.1" id="Layer_1" xmlns="http://www.w3.org/2000/svg" xmlns:xlink="http://www.w3.org/1999/xlink" x="0px" y="0px"
	 width="394px" height="499.602px" viewBox="-193.5 -403.101 394 499.602" enable-background="new -193.5 -403.101 394 499.602"
	 xml:space="preserve">
<path fill="#FFFFFF" d="M-157.533-154.278L-157.533-154.278c0-10.178,3.971-19.777,11.174-26.97
	c1.756-1.754,3.654-3.314,5.667-4.677l-0.002-0.01L122.315-374.34c8.277-5.949,18.594-7.896,28.345-6.269
	c9.819,1.614,19.009,6.773,24.888,15.065c5.929,8.272,8.29,18.388,6.625,28.431c-1.664,10.045-7.125,18.876-15.4,24.828
	L-34.704-167.917c-4.167,3.094-8.006,8.049-8.006,13.638c0,5.591,3.841,10.548,8.011,13.643L166.771,3.728
	c8.276,5.952,13.735,14.783,15.4,24.828c1.665,10.043-0.696,20.158-6.625,28.431c-5.879,8.292-15.067,13.451-24.888,15.065
	c-9.75,1.628-20.067-0.319-28.345-6.269l-263.009-188.404l0.002-0.01c-2.013-1.363-3.911-2.923-5.667-4.677
	C-153.563-134.502-157.534-144.101-157.533-154.278z"/>
</svg>
