<?xml version="1.0" encoding="utf-8"?>
<!-- Generator: Adobe Illustrator 14.0.0, SVG Export Plug-In . SVG Version: 6.00 Build 43363)  -->
<!DOCTYPE svg PUBLIC "-//W3C//DTD SVG 1.1//EN" "http://www.w3.org/Graphics/SVG/1.1/DTD/svg11.dtd">
<svg version="1.1" id="Layer_1" xmlns="http://www.w3.org/2000/svg" xmlns:xlink="http://www.w3.org/1999/xlink" x="0px" y="0px"
	 width="174.521px" height="162px" viewBox="0 0 174.521 162" enable-background="new 0 0 174.521 162" xml:space="preserve">
<path fill="#021799" d="M107.469,152.031c-0.385-13.415-2.76-26.688-8.553-38.9C84.75,83.254,50.773,61.36,17.448,62.217
	c0,8.701,0,17.403,0,26.102c20.911-0.534,42.707,11.744,53.989,29.162c6.593,10.182,9.929,22.465,9.929,34.553
	C90.063,152.031,98.764,152.031,107.469,152.031"/>
<circle fill="#021799" cx="36.088" cy="133.389" r="18.641"/>
<path fill="#021799" d="M153.084,152.031c0-35.137-13.008-62.592-27.834-81.861C97.762,34.433,59.627,16.565,17.448,16.565
	c0,13.062,0,13.715,0,26.776c31.387-0.804,70.942,18.549,87.873,44.694c9.895,15.277,20.959,35.046,20.959,63.996
	C139.346,152.031,140.018,152.031,153.084,152.031"/>
</svg>
